# xmcd
#
# Track frame offsets:
# 150
# 11272
# 23646
# 37729
# 55280
# 68748
# 82217
# 96469
# 108692
# 122935
# 136884
# 147937
#
# Disc length: 2190 seconds
#
#
# Revision: 0
# Processed by: cddbd v1.5.2PL0 Copyright (c) Steve Scherf et al.
# Submitted via: FreeRIP 2.951 
#
DISCID=a3088c0c
DTITLE=simple union - glimmer of hope
DYEAR=1900
DGENRE=Country
TTITLE0=some days you gotta dance
TTITLE1=jolene
TTITLE2=just call me lonesome
TTITLE3=black coffee
TTITLE4=glimmer of hope
TTITLE5=no one needs to know
TTITLE6=singing waterfall
TTITLE7=folsom prison
TTITLE8=unlove me
TTITLE9=trouble is here
TTITLE10=honky tonk angels
TTITLE11=I dont love you like I used to
EXTD=
EXTT0=
EXTT1=
EXTT2=
EXTT3=
EXTT4=
EXTT5=
EXTT6=
EXTT7=
EXTT8=
EXTT9=
EXTT10=
EXTT11=
PLAYORDER=
